<svg xmlns="http://www.w3.org/2000/svg" viewBox="0 0 1653 228" role="img" aria-label="Welcome to">
  <metadata>Author: huangbingrui.awa. Static glyph outlines generated from Ethnocentric Rg by Typodermic Fonts under its desktop license.</metadata>
  <defs>
    <linearGradient id="wordmark-gradient" x1="0" y1="0" x2="1" y2="1">
      <stop offset="0" stop-color="#f8fdff"/><stop offset=".26" stop-color="#8fe8f3"/>
      <stop offset=".48" stop-color="#f8fdff"/><stop offset=".66" stop-color="#f2aec3"/>
      <stop offset=".82" stop-color="#f7f1ff"/><stop offset="1" stop-color="#f7d77a"/>
    </linearGradient>
  </defs>
  <style>
    .letter{fill:url(#wordmark-gradient);stroke:rgba(14,67,107,.72);stroke-width:1.4;paint-order:stroke fill;transform-box:fill-box;transform-origin:center;animation:float 6.4s ease-in-out var(--delay) infinite}
    @keyframes float{0%,100%{transform:translateY(calc(var(--height)*.35))}50%{transform:translateY(calc(var(--height)*-.65))}}
    @media(prefers-reduced-motion:reduce){.letter{animation:none}}
  </style>
  <path class="letter letter-0" style="--delay:0s;--height:10px" d="M151.38 173.20C155.88 181.12 162.36 185.98 171.90 185.98C181.26 185.98 189.54 180.58 192.78 169.42L223.92 63.58L187.56 63.58L176.22 105.52C172.62 118.84 169.92 129.10 167.94 138.64C164.16 130.54 160.02 122.08 151.02 105.52L135 75.10C128.70 63.22 122.40 61.60 113.40 61.60C104.58 61.60 98.46 63.22 92.16 75.10L75.96 105.34C67.68 121 63 130.18 59.04 138.64C57.24 128.92 54.72 119.02 50.94 105.52L39.60 63.58L2.34 63.58L32.94 169.42C36.18 180.58 44.46 185.98 53.82 185.98C63.54 185.98 70.02 180.94 74.34 173.20L93.60 139C104.04 120.46 108.90 111.64 112.68 103C116.82 111.64 121.68 120.64 132.12 139.18Z"/>
  <path class="letter letter-1" style="--delay:-0.24s;--height:12px" d="M275.58 153.04L275.58 136.66L349.56 136.66L370.98 109.30L275.58 109.30L275.58 94.90L353.52 94.90L377.64 63.58L238.14 63.58L238.14 184L354.06 184L378 153.04Z"/>
  <path class="letter letter-2" style="--delay:-0.48s;--height:14px" d="M428.04 153.04L428.04 63.58L390.78 63.58L390.78 184L497.16 184L521.28 153.04Z"/>
  <path class="letter letter-3" style="--delay:-0.72s;--height:16px" d="M597.78 153.04C577.44 153.04 562.50 141.34 562.50 124.24C562.50 106.96 577.62 94.90 597.78 94.90L658.26 94.90L682.20 63.58L597.78 63.58C556.02 63.58 525.24 87.34 525.24 122.62C525.24 157.54 556.02 184 597.78 184L658.26 184L682.20 153.04Z"/>
  <path class="letter letter-4" style="--delay:-0.96s;--height:18px" d="M779.40 61.60C720.72 61.60 691.38 80.68 691.38 123.70C691.38 166.72 720.72 185.98 779.40 185.98C837.90 185.98 867.42 166.72 867.42 123.70C867.42 80.68 837.90 61.60 779.40 61.60ZM779.40 154.66C741.96 154.66 728.46 149.62 728.46 123.70C728.46 97.78 741.96 92.92 779.40 92.92C816.84 92.92 830.34 97.78 830.34 123.70C830.34 149.62 816.84 154.66 779.40 154.66Z"/>
  <path class="letter letter-5" style="--delay:-1.2s;--height:10px" d="M945.00 74.38C940.68 66.46 934.20 61.60 924.66 61.60C915.30 61.60 906.84 67 903.60 78.16L872.46 184L909.00 184L920.34 142.06C923.94 128.56 926.64 118.48 928.44 108.94C932.22 117.04 936.54 125.50 945.36 142.06L961.56 172.48C967.86 184.36 973.98 185.98 982.98 185.98C991.98 185.98 998.10 184.36 1004.40 172.48L1020.60 142.24C1028.88 126.58 1033.38 117.40 1037.34 108.94C1039.32 118.66 1041.84 128.38 1045.62 142.06L1056.96 184L1094.04 184L1063.62 78.16C1060.38 67 1052.10 61.60 1042.74 61.60C1033.02 61.60 1026.54 66.64 1022.22 74.38L1002.96 108.58C992.34 127.12 987.66 135.94 983.70 144.40C979.56 135.94 974.88 126.94 964.26 108.40Z"/>
  <path class="letter letter-6" style="--delay:-1.44s;--height:12px" d="M1145.16 153.04L1145.16 136.66L1219.14 136.66L1240.56 109.30L1145.16 109.30L1145.16 94.90L1223.10 94.90L1247.22 63.58L1107.72 63.58L1107.72 184L1223.64 184L1247.58 153.04Z"/>
  <path class="letter letter-7" style="--delay:-1.68s;--height:14px" d="M1342.08 63.58L1317.96 94.90L1374.48 94.90L1374.48 184L1411.74 184L1411.74 94.90L1454.76 94.90L1478.88 63.58Z"/>
  <path class="letter letter-8" style="--delay:-1.92s;--height:16px" d="M1557.36 61.60C1498.68 61.60 1469.34 80.68 1469.34 123.70C1469.34 166.72 1498.68 185.98 1557.36 185.98C1615.86 185.98 1645.38 166.72 1645.38 123.70C1645.38 80.68 1615.86 61.60 1557.36 61.60ZM1557.36 154.66C1519.92 154.66 1506.42 149.62 1506.42 123.70C1506.42 97.78 1519.92 92.92 1557.36 92.92C1594.80 92.92 1608.30 97.78 1608.30 123.70C1608.30 149.62 1594.80 154.66 1557.36 154.66Z"/>
</svg>
